<svg width="2100" height="2100" viewBox="0 0 2100 2100" fill="none" xmlns="http://www.w3.org/2000/svg">
<rect width="2100" height="2100" fill="white"/>
<rect width="2100" height="2100" fill="url(#paint0_linear_0_20)"/>
<g style="mix-blend-mode:multiply" opacity="0.277134" filter="url(#filter0_f_0_20)">
<rect x="630.106" y="786.608" width="840" height="840" rx="233.8" fill="black"/>
</g>
<g style="mix-blend-mode:multiply" opacity="0.304478" filter="url(#filter1_f_0_20)">
<rect x="630.106" y="664.808" width="840" height="840" rx="233.8" fill="black"/>
</g>
<mask id="mask0_0_20" style="mask-type:alpha" maskUnits="userSpaceOnUse" x="630" y="632" width="841" height="841">
<rect x="630.106" y="632.608" width="840" height="840" rx="233.8" fill="white"/>
</mask>
<g mask="url(#mask0_0_20)">
<g filter="url(#filter2_i_0_20)">
<rect x="630.106" y="632.608" width="840" height="840" rx="233.8" fill="url(#paint1_linear_0_20)"/>
<rect x="630.106" y="632.608" width="840" height="840" rx="233.8" fill="url(#paint2_linear_0_20)" fill-opacity="0.6" style="mix-blend-mode:multiply"/>
</g>
<rect x="630" y="633" width="840" height="840" rx="233.8" fill="url(#paint3_linear_0_20)" fill-opacity="0.9"/>
<g style="mix-blend-mode:screen" filter="url(#filter3_f_0_20)">
<path fill-rule="evenodd" clip-rule="evenodd" d="M863.906 618.608C734.782 618.608 630.106 723.284 630.106 852.408V894.408C630.106 765.284 734.782 660.608 863.906 660.608H1236.31C1365.43 660.608 1470.11 765.284 1470.11 894.408V852.408C1470.11 723.284 1365.43 618.608 1236.31 618.608H863.906Z" fill="white"/>
</g>
<g filter="url(#filter4_f_0_20)">
<rect x="662.306" y="664.808" width="775.6" height="775.6" rx="210" fill="url(#paint4_linear_0_20)"/>
</g>
</g>
<path fill-rule="evenodd" clip-rule="evenodd" d="M798.269 1158.56L921.525 963.043C941.111 931.976 983.153 924.209 1012.53 946.243L1110.55 1019.77C1119.58 1026.53 1131.9 1026.44 1140.85 1019.69L1273.23 919.228C1290.87 905.805 1314 926.995 1302.1 945.737L1178.93 1141.17C1159.34 1172.24 1117.3 1180.01 1087.92 1157.97L989.907 1084.44C980.874 1077.69 968.548 1077.77 959.599 1084.53L827.141 1185.07C809.497 1198.5 786.365 1177.31 798.269 1158.56Z" fill="url(#paint5_linear_0_20)" stroke="#979797"/>
<defs>
<filter id="filter0_f_0_20" x="451.243" y="607.746" width="1197.73" height="1197.73" filterUnits="userSpaceOnUse" color-interpolation-filters="sRGB">
<feFlood flood-opacity="0" result="BackgroundImageFix"/>
<feBlend mode="normal" in="SourceGraphic" in2="BackgroundImageFix" result="shape"/>
<feGaussianBlur stdDeviation="89.4315" result="effect1_foregroundBlur_0_20"/>
</filter>
<filter id="filter1_f_0_20" x="519.744" y="554.446" width="1060.72" height="1060.72" filterUnits="userSpaceOnUse" color-interpolation-filters="sRGB">
<feFlood flood-opacity="0" result="BackgroundImageFix"/>
<feBlend mode="normal" in="SourceGraphic" in2="BackgroundImageFix" result="shape"/>
<feGaussianBlur stdDeviation="55.1811" result="effect1_foregroundBlur_0_20"/>
</filter>
<filter id="filter2_i_0_20" x="630.106" y="611.608" width="840" height="861" filterUnits="userSpaceOnUse" color-interpolation-filters="sRGB">
<feFlood flood-opacity="0" result="BackgroundImageFix"/>
<feBlend mode="normal" in="SourceGraphic" in2="BackgroundImageFix" result="shape"/>
<feColorMatrix in="SourceAlpha" type="matrix" values="0 0 0 0 0 0 0 0 0 0 0 0 0 0 0 0 0 0 127 0" result="hardAlpha"/>
<feOffset dy="-25"/>
<feGaussianBlur stdDeviation="10.5"/>
<feComposite in2="hardAlpha" operator="arithmetic" k2="-1" k3="1"/>
<feColorMatrix type="matrix" values="0 0 0 0 0 0 0 0 0 0 0 0 0 0 0 0 0 0 0.0920291 0"/>
<feBlend mode="normal" in2="shape" result="effect1_innerShadow_0_20"/>
</filter>
<filter id="filter3_f_0_20" x="557.8" y="546.302" width="984.613" height="420.413" filterUnits="userSpaceOnUse" color-interpolation-filters="sRGB">
<feFlood flood-opacity="0" result="BackgroundImageFix"/>
<feBlend mode="normal" in="SourceGraphic" in2="BackgroundImageFix" result="shape"/>
<feGaussianBlur stdDeviation="36.1531" result="effect1_foregroundBlur_0_20"/>
</filter>
<filter id="filter4_f_0_20" x="619.287" y="621.789" width="861.639" height="861.64" filterUnits="userSpaceOnUse" color-interpolation-filters="sRGB">
<feFlood flood-opacity="0" result="BackgroundImageFix"/>
<feBlend mode="normal" in="SourceGraphic" in2="BackgroundImageFix" result="shape"/>
<feGaussianBlur stdDeviation="21.5099" result="effect1_foregroundBlur_0_20"/>
</filter>
<linearGradient id="paint0_linear_0_20" x1="-0.0132056" y1="0" x2="-0.0132056" y2="2100.03" gradientUnits="userSpaceOnUse">
<stop stop-color="#F2F2F2"/>
<stop offset="1" stop-color="#DEDEDE"/>
</linearGradient>
<linearGradient id="paint1_linear_0_20" x1="630.101" y1="632.608" x2="630.101" y2="1472.62" gradientUnits="userSpaceOnUse">
<stop stop-color="#F1F1F1"/>
<stop offset="1" stop-color="#C3C3C3"/>
</linearGradient>
<linearGradient id="paint2_linear_0_20" x1="681.785" y1="735.966" x2="681.785" y2="1472.61" gradientUnits="userSpaceOnUse">
<stop stop-opacity="0.01"/>
<stop offset="1" stop-opacity="0.5"/>
</linearGradient>
<linearGradient id="paint3_linear_0_20" x1="750.504" y1="633" x2="750.504" y2="1231.99" gradientUnits="userSpaceOnUse">
<stop stop-color="white" stop-opacity="0.463778"/>
<stop offset="1" stop-color="white" stop-opacity="0.01"/>
</linearGradient>
<linearGradient id="paint4_linear_0_20" x1="662.302" y1="664.808" x2="662.302" y2="1440.42" gradientUnits="userSpaceOnUse">
<stop stop-color="#E3E3E3"/>
<stop offset="1" stop-color="#DEDEDE"/>
</linearGradient>
<linearGradient id="paint5_linear_0_20" x1="794.997" y1="915" x2="794.997" y2="1189.3" gradientUnits="userSpaceOnUse">
<stop stop-color="#00B2FF"/>
<stop offset="1" stop-color="#006AFF"/>
</linearGradient>
</defs>
</svg>
